<svg width="208" height="208" fill="none" xmlns="http://www.w3.org/2000/svg"><g clip-path="url(#a)"><path d="M208 67.194c0 51.959-28.458 95.59-71.216 109.728-8.141 3.225-16.993 5.062-26.28 5.062-26.366 0-50.862-14.832-63.253-38.379-21.99 20.284-27.913 43.469-28.015 43.916-1.069 4.473-5.07 7.479-9.478 7.479-.749 0-1.514-.089-2.276-.267-5.236-1.258-8.466-6.532-7.21-11.765 3.899-16.046 36.753-91.975 136.215-91.975C140.075 91 143 88.075 143 84.5s-2.925-6.5-6.5-6.5c-43.631 0-75.156 14.056-97.382 30.713.078-4.396.504-8.873 1.436-13.427 5.472-26.735 26.829-48.344 53.381-54.519 11.509-2.666 22.62-2.443 32.878-.002 22.75 5.411 48.019-3.011 60.653-24.879 2.301-3.992 8.133-3.866 10.018.337C204.222 31.183 208 49.522 208 67.193Z" fill="#D3DAE3"/></g><defs><clipPath id="a"><path fill="#fff" d="M0 0h208v208H0z"/></clipPath></defs></svg>